<svg class="css-g0144v" width="1em" height="1em" viewBox="0 0 48 48" fill="currentColor"
    xmlns="http://www.w3.org/2000/svg">
    <path fillRule="evenodd" clipRule="evenodd"
        d="M4 42V5C4 4.44772 4.44772 4 5 4H7C7.55228 4 8 4.44772 8 5V40H43C43.5523 40 44 40.4477 44 41V43C44 43.5523 43.5523 44 43 44H6C4.89543 44 4 43.1046 4 42ZM42.8396 11.5433C43.3033 11.8433 43.4359 12.4624 43.1359 12.9261L32.6791 29.0865C32.3807 29.5477 31.9057 29.8659 31.3656 29.9663C30.8255 30.0667 30.2679 29.9406 29.8237 29.6175L20.5908 22.9027L13.2295 35.1715C12.9453 35.6451 12.3311 35.7986 11.8575 35.5145L10.1425 34.4855C9.66893 34.2014 9.51536 33.5871 9.79951 33.1135L18.285 18.971C18.5737 18.4898 19.0513 18.1521 19.6011 18.0402C20.151 17.9283 20.7225 18.0525 21.1763 18.3825L30.4682 25.1403L39.7776 10.7531C40.0776 10.2894 40.6967 10.1567 41.1604 10.4567L42.8396 11.5433Z">
    </path>
</svg>